<svg class="svg-logo" width="866.667" height="866.667" xmlns="http://www.w3.org/2000/svg">
    <path
        d="M270.111 597.109c0-45.42.204-63.772.452-40.782.248 22.989.248 60.15 0 82.58-.25 22.43-.452 3.62-.452-41.798zM730.69 465.297c0-117.915.188-166.388.42-107.717.23 58.672.23 155.148 0 214.392-.232 59.245-.42 11.24-.42-106.675zm-411.332-32.556c0-66.818.196-94.153.436-60.744.24 33.41.24 88.08 0 121.489-.24 33.41-.436 6.074-.436-60.745zm323.466 0c0-2.183.36-3.077.801-1.985.44 1.092.44 2.879 0 3.97-.44 1.092-.8.199-.8-1.985zM139.15 376.56c0-.33 1.25-1.58 2.78-2.78 2.518-1.975 2.574-1.919.599.6-2.075 2.645-3.379 3.487-3.379 2.18zm56.969-2.18c-1.975-2.519-1.92-2.575.6-.6 1.528 1.2 2.779 2.45 2.779 2.78 0 1.307-1.304.465-3.38-2.18zm657.469-9.528c-1.976-2.52-1.92-2.575.6-.6 1.528 1.199 2.778 2.45 2.778 2.78 0 1.306-1.304.465-3.378-2.18zM65.895 239.39c-1.976-2.518-1.92-2.574.6-.599 1.528 1.199 2.778 2.45 2.778 2.78 0 1.306-1.304.465-3.378-2.18zM6.521 465.297c0-117.915.189-166.388.42-107.717.23 58.672.23 155.148 0 214.392-.23 59.245-.42 11.24-.42-106.675zm329.867 182.327c-.174-17.636.22-32.398.875-32.805.655-.407 1.006 9.02.78 20.949-.76 40.023-1.337 44.158-1.655 11.856zM663.99 465.297c0-117.915.189-166.388.42-107.717.23 58.672.23 155.148 0 214.392-.231 59.245-.42 11.24-.42-106.675zm-590.77-.794c0-116.605.19-164.307.42-106.005.231 58.303.231 153.707 0 212.01-.23 58.303-.42 10.6-.42-106.005zm254.614 97.377c1.146-.459 2.516-.403 3.044.125s-.41.903-2.084.834c-1.85-.076-2.227-.452-.96-.96zM31.614 234.643c5.054-.316 12.916-.313 17.47.006 4.553.32.418.578-9.19.575-9.608-.004-13.334-.265-8.28-.581zm655.823.001c5.022-.315 13.24-.315 18.263 0 5.022.315.913.573-9.132.573-10.044 0-14.153-.258-9.131-.573zM426.25 52.016c4.614-.322 11.76-.319 15.88.007 4.12.326.344.589-8.39.585-8.735-.004-12.105-.271-7.49-.593zM426.25 814.298c4.614-.322 11.76-.318 15.88.007 4.12.326.344.59-8.39.585-8.735-.003-12.105-.27-7.49-.592zM64.51 691c0-.33 1.25-1.58 2.778-2.779 2.52-1.975 2.575-1.92.6.6-2.075 2.645-3.379 3.486-3.379 2.18zm211.012-2.18c-1.975-2.518-1.919-2.574.6-.599 1.528 1.199 2.78 2.45 2.78 2.78 0 1.306-1.305.465-3.38-2.18zM721.978 691c0-.33 1.25-1.58 2.779-2.779 2.519-1.975 2.575-1.92.6.6-2.075 2.645-3.38 3.486-3.38 2.18zM274.895 373.188c0-73.37.195-103.152.432-66.184.238 36.969.238 96.999 0 133.4-.237 36.4-.432 6.154-.432-67.216zm361.326 71.658c0-.33 1.25-1.58 2.78-2.779 2.518-1.975 2.574-1.919.599.6-2.075 2.645-3.379 3.487-3.379 2.18zM459.741 58.35c-1.976-2.518-1.92-2.574.6-.6 1.528 1.2 2.778 2.45 2.778 2.78 0 1.307-1.304.466-3.378-2.18z" />
    <path
        d="M407.705 809.81c-2.662-2.24-5.572-6.706-6.466-9.925-1.034-3.724-1.629-44.705-1.634-112.652-.005-58.74-.545-106.789-1.2-106.776-.655.013-14.77 7.718-31.365 17.122l-30.174 17.098-.794 34.094c-.873 37.51-1.3 39.235-10.822 43.754-4.14 1.964-9.416 2.397-24.207 1.984l-18.913-.527-5.188-5.191-5.187-5.19-.438-84.935c-.379-73.605-.114-85.559 1.985-89.618 2.116-4.09 2.423-21.708 2.423-138.869V235.995l3.833-4.455c3.152-3.666 5.054-4.433 10.72-4.325 5.9.112 14.14 4.265 57.496 28.982 27.835 15.869 50.882 28.852 51.215 28.852.334 0 .647-48.06.696-106.799.066-78.407.594-108.262 1.986-112.302 1.083-3.145 4.208-7.059 7.291-9.132 4.897-3.292 7.214-3.628 25.036-3.628h19.64l5.931 5.436 5.932 5.436.795 129.931.794 129.932 85.495 48.454c59.642 33.8 86.158 49.654 87.686 52.424 3.148 5.708 2.793 11.653-.984 16.454-1.807 2.298-11.074 8.518-20.593 13.822l-17.306 9.645-.45 108.278c-.433 104.415-.56 108.44-3.553 112.861-4.752 7.019-11.266 8.916-30.592 8.909-14.18-.005-17.996-.539-22.207-3.106-10.274-6.264-10.003-3.546-10.003-100.151 0-70.54-.396-87.44-2.042-87.027-1.123.282-16.488 8.693-34.144 18.69l-32.101 18.177v128.375c0 140.64.258 136.711-9.325 141.667-3.612 1.868-9.744 2.488-24.619 2.488-18.944 0-20.019-.178-24.647-4.073zm30.586-305.846c58.638-32.45 108.937-60.715 111.776-62.81 5.229-3.86 6.768-9.772 3.773-14.496-2.175-3.431-221.136-124.14-225.184-124.14-2.035 0-5.13 1.43-6.877 3.176-3.121 3.122-3.176 5.294-3.176 126.932v123.756l4.185 3.291c2.301 1.81 5.243 3.292 6.536 3.292 1.294 0 50.33-26.55 108.967-59zm364.98 197.124c-10.284-6.271-9.83 1.57-9.827-169.437.003-173.61-.675-163.29 11.114-169.18 7.905-3.949 36.562-3.949 44.467 0 11.79 5.89 11.111-4.43 11.114 169.18.002 171.007.458 163.166-9.828 169.437-4.468 2.724-7.997 3.205-23.52 3.205-15.522 0-19.051-.481-23.52-3.205zM17.58 692.379c-2.665-1.352-6.06-4.513-7.543-7.025-2.503-4.237-2.698-20.255-2.698-221.652V246.617l5.4-5.4 5.399-5.399h20.86c16.702 0 21.656.522 24.855 2.618 9.091 5.957 8.598-7.118 8.598 227.6v216.082l-5.433 5.932-5.432 5.932-19.58.428c-15.184.331-20.668-.125-24.426-2.031zm128.224-.82c-10.253-6.25-9.83.625-9.827-159.908.002-162.957-.636-153.782 11.114-159.652 7.904-3.948 36.562-3.948 44.466 0 11.752 5.871 11.112-3.347 11.112 159.998s.64 154.127-11.112 159.997c-8.527 4.26-38.52 3.975-45.753-.435zm529.245.753c-2.666-1.315-6.06-4.446-7.544-6.958-2.502-4.237-2.697-20.255-2.697-221.652V246.617l5.4-5.4 5.399-5.399h20.088c14.85 0 21.304.629 24.748 2.41 10.09 5.218 9.476-9.534 9.476 227.57v215.845l-3.316 4.216c-5.824 7.403-10.872 8.92-29.558 8.88-12.009-.025-18.603-.752-21.996-2.427z" />
</svg>